<?xml version="1.0" encoding="UTF-8" standalone="no"?>
<svg
   width="456"
   height="456"
   viewBox="0 0 456 456"
   version="1.1"
   xml:space="preserve"
   style="fill-rule:evenodd;clip-rule:evenodd;stroke-linejoin:round;stroke-miterlimit:2;"
   id="svg4"
   sodipodi:docname="splash.svg"
   inkscape:version="1.4 (86a8ad7, 2024-10-11)"
   xmlns:inkscape="http://www.inkscape.org/namespaces/inkscape"
   xmlns:sodipodi="http://sodipodi.sourceforge.net/DTD/sodipodi-0.dtd"
   xmlns="http://www.w3.org/2000/svg"
   xmlns:svg="http://www.w3.org/2000/svg"><defs
   id="defs4" /><sodipodi:namedview
   id="namedview4"
   pagecolor="#505050"
   bordercolor="#eeeeee"
   borderopacity="1"
   inkscape:showpageshadow="0"
   inkscape:pageopacity="0"
   inkscape:pagecheckerboard="0"
   inkscape:deskcolor="#505050"
   inkscape:zoom="1.7872807"
   inkscape:cx="227.72025"
   inkscape:cy="228"
   inkscape:window-width="1920"
   inkscape:window-height="1017"
   inkscape:window-x="-8"
   inkscape:window-y="-8"
   inkscape:window-maximized="1"
   inkscape:current-layer="svg4" />
    
    
    
    
<g
   style="clip-rule:evenodd;fill-rule:evenodd;stroke-linejoin:round;stroke-miterlimit:2"
   id="g4"
   transform="translate(0,4.5864225e-5)"><path
     fill-rule="evenodd"
     clip-rule="evenodd"
     d="m 198.08486,112.50001 h 67.95256 c 15.21038,-2.2e-4 27.47011,-4.3e-4 37.11284,1.23565 10.01087,1.28337 18.43908,4.02881 25.1345,10.41196 6.6943,6.38316 9.57377,14.4201 10.91953,23.96545 1.29571,9.19392 1.29571,20.88364 1.29571,35.38645 v 86.00128 c 0,14.50292 0,26.19243 -1.29571,35.38666 -1.34576,9.54525 -4.22523,17.58145 -10.91953,23.96545 -6.69542,6.38294 -15.12363,9.12849 -25.1345,10.41165 C 293.50753,340.5 281.2478,340.5 266.03742,340.5 h -67.95256 c -3.48684,0 -6.81876,0 -9.99953,-0.0148 -0.16938,0.01 -0.34022,0.0148 -0.51216,0.0148 -0.20364,0 -0.40562,-0.007 -0.60559,-0.0202 -10.20428,-0.0604 -18.82379,-0.29587 -25.99534,-1.21529 -10.01098,-1.28316 -18.43997,-4.02871 -25.13449,-10.41165 -6.69453,-6.384 -9.57389,-14.4202 -10.91987,-23.96545 -1.06904,-7.58232 -1.25634,-16.86139 -1.28903,-28.01536 h -2.78739 c -4.60682,0 -8.34146,-3.56105 -8.34146,-7.95349 0,-4.39245 3.73464,-7.95349 8.34146,-7.95349 h 2.78049 v -26.51163 h -2.78049 c -4.60682,0 -8.34146,-3.56104 -8.34146,-7.95349 0,-4.39244 3.73464,-7.95348 8.34146,-7.95348 h 2.78049 v -26.51163 h -2.78049 c -4.60682,0 -8.34146,-3.56094 -8.34146,-7.95349 0,-4.39255 3.73464,-7.95349 8.34146,-7.95349 h 2.78739 c 0.0327,-11.15418 0.21999,-20.43315 1.28903,-28.01484 1.34598,-9.54535 4.22534,-17.58229 10.91987,-23.96545 6.69452,-6.38315 15.12351,-9.12859 25.13449,-10.41196 9.6424,-1.23608 21.90235,-1.23587 37.11262,-1.23565 z m -57.77998,79.53488 h 2.78048 c 4.60683,0 8.34147,-3.56094 8.34147,-7.95349 0,-4.39255 -3.73464,-7.95349 -8.34147,-7.95349 h -2.77181 c 0.0356,-11.09034 0.21699,-19.36017 1.13856,-25.89528 1.09718,-7.78138 3.10413,-11.90213 6.18224,-14.83708 3.07812,-2.93494 7.39977,-4.84855 15.56084,-5.8947 4.46746,-0.57276 9.70779,-0.84561 16.03652,-0.97563 v 195.95009 c -6.32873,-0.13043 -11.56906,-0.40297 -16.03652,-0.97562 -8.16107,-1.04668 -12.48272,-2.95976 -15.56084,-5.89513 -3.07811,-2.93537 -5.08506,-7.05527 -6.18224,-14.83697 -0.92157,-6.53564 -1.10297,-14.80515 -1.13856,-25.89549 h 2.77181 c 4.60683,0 8.34147,-3.56105 8.34147,-7.95349 0,-4.39245 -3.73464,-7.95349 -8.34147,-7.95349 h -2.78048 v -26.51163 h 2.78048 c 4.60683,0 8.34147,-3.56104 8.34147,-7.95349 0,-4.39244 -3.73464,-7.95348 -8.34147,-7.95348 h -2.78048 z m 55.60975,132.55814 c 0.91022,0 1.8369,0 2.78049,0 h 66.73171 c 15.96444,0 27.09863,-0.017 35.50015,-1.09334 8.16129,-1.04668 12.48217,-2.95976 15.56072,-5.89513 3.07856,-2.93537 5.08496,-7.05527 6.1827,-14.83697 1.12887,-8.01075 1.14667,-18.62707 1.14667,-33.84898 V 184.0814 c 0,-15.22213 -0.0178,-25.83855 -1.14667,-33.84877 -1.09774,-7.78138 -3.10414,-11.90213 -6.1827,-14.83708 -3.07855,-2.93494 -7.39943,-4.84855 -15.56072,-5.8947 -8.40152,-1.07701 -19.53571,-1.09387 -35.50015,-1.09387 h -66.73171 c -0.94359,0 -1.87027,1.1e-4 -2.78049,4.3e-4 z m 22.2439,-156.41861 c 0,-4.39255 3.73476,-7.95348 8.34147,-7.95348 h 55.60975 c 4.60671,0 8.34147,3.56093 8.34147,7.95348 0,4.39256 -3.73476,7.95349 -8.34147,7.95349 H 226.5 c -4.60671,0 -8.34147,-3.56093 -8.34147,-7.95349 z m 0,37.11628 c 0,-4.39255 3.73476,-7.95349 8.34147,-7.95349 h 55.60975 c 4.60671,0 8.34147,3.56094 8.34147,7.95349 0,4.39245 -3.73476,7.95349 -8.34147,7.95349 H 226.5 c -4.60671,0 -8.34147,-3.56104 -8.34147,-7.95349 z"
     fill="#1c274c"
     id="path1"
     style="fill:#ffffff;stroke-width:10.8602" /></g></svg>
