<?xml version="1.0" encoding="utf-8"?>
<!-- Generator: Adobe Illustrator 27.8.1, SVG Export Plug-In . SVG Version: 6.00 Build 0)  -->
<svg version="1.1" id="Layer_1" xmlns="http://www.w3.org/2000/svg" xmlns:xlink="http://www.w3.org/1999/xlink" x="0px" y="0px"
	 viewBox="0 0 701 701" style="enable-background:new 0 0 701 701;" xml:space="preserve">
<style type="text/css">
	.st0{fill:none;stroke:#231F20;stroke-miterlimit:10;}
	.st1{fill:#FFFFFF;stroke:#231F20;stroke-width:5;stroke-miterlimit:10;}
</style>
<rect x="0.5" y="0.5" class="st0" width="700" height="700"/>
<path class="st1" d="M280.5,239.7h163.3c6.4,0,11.7,5.2,11.7,11.7v198.3c0,6.4-5.2,11.7-11.7,11.7H280.5c-6.4,0-11.7-5.2-11.7-11.7
	V251.3C268.8,244.9,274.1,239.7,280.5,239.7z"/>
<rect x="245.5" y="251.3" class="st1" width="46.7" height="23.3"/>
<rect x="245.5" y="286.3" class="st1" width="46.7" height="23.3"/>
<rect x="245.5" y="321.3" class="st1" width="46.7" height="23.3"/>
<rect x="245.5" y="356.3" class="st1" width="46.7" height="23.3"/>
<rect x="245.5" y="391.3" class="st1" width="46.7" height="23.3"/>
<rect x="245.5" y="426.3" class="st1" width="46.7" height="23.3"/>
<path class="st1" d="M319.6,274.7h85.1c2.3,0,4.1,1.8,4.1,4.1v38.5c0,2.3-1.8,4.1-4.1,4.1h-85.1c-2.3,0-4.1-1.8-4.1-4.1v-38.5
	C315.5,276.5,317.3,274.7,319.6,274.7z"/>
</svg>
