<?xml version="1.0" encoding="UTF-8" standalone="no"?>
<svg
   width="456"
   height="456"
   viewBox="0 0 456 456"
   version="1.1"
   xml:space="preserve"
   style="fill-rule:evenodd;clip-rule:evenodd;stroke-linejoin:round;stroke-miterlimit:2;"
   id="svg4"
   sodipodi:docname="appiconfg.svg"
   inkscape:version="1.4 (86a8ad7, 2024-10-11)"
   xmlns:inkscape="http://www.inkscape.org/namespaces/inkscape"
   xmlns:sodipodi="http://sodipodi.sourceforge.net/DTD/sodipodi-0.dtd"
   xmlns="http://www.w3.org/2000/svg"
   xmlns:svg="http://www.w3.org/2000/svg"><defs
   id="defs4" /><sodipodi:namedview
   id="namedview4"
   pagecolor="#505050"
   bordercolor="#eeeeee"
   borderopacity="1"
   inkscape:showpageshadow="0"
   inkscape:pageopacity="0"
   inkscape:pagecheckerboard="0"
   inkscape:deskcolor="#505050"
   inkscape:zoom="1.7872807"
   inkscape:cx="227.72025"
   inkscape:cy="228"
   inkscape:window-width="1920"
   inkscape:window-height="1017"
   inkscape:window-x="-8"
   inkscape:window-y="-8"
   inkscape:window-maximized="1"
   inkscape:current-layer="svg4" />
    
    
    
    
<g
   style="fill:#ffffff"
   id="g4"
   transform="matrix(11.121951,0,0,10.604651,98.597561,99.244192)"><path
     fill-rule="evenodd"
     clip-rule="evenodd"
     d="m 8.94513,1.25 h 6.10977 c 1.3676,-2e-5 2.4699,-4e-5 3.3369,0.11652 0.9001,0.12102 1.6579,0.37991 2.2599,0.98183 0.6019,0.60192 0.8608,1.35979 0.9818,2.2599 C 21.75,5.47522 21.75,6.57754 21.75,7.94513 v 8.10977 c 0,1.3676 0,2.4699 -0.1165,3.3369 -0.121,0.9001 -0.3799,1.6579 -0.9818,2.2599 -0.602,0.6019 -1.3598,0.8608 -2.2599,0.9818 C 17.5248,22.75 16.4225,22.75 15.0549,22.75 H 8.94513 c -0.31351,0 -0.61309,0 -0.89908,-0.0014 C 8.03082,22.7495 8.01546,22.75 8,22.75 7.98169,22.75 7.96353,22.7493 7.94555,22.7481 7.02806,22.7424 6.25306,22.7202 5.60825,22.6335 4.70814,22.5125 3.95027,22.2536 3.34835,21.6517 2.74643,21.0497 2.48754,20.2919 2.36652,19.3918 2.2704,18.6768 2.25356,17.8018 2.25062,16.75 H 2 C 1.58579,16.75 1.25,16.4142 1.25,16 1.25,15.5858 1.58579,15.25 2,15.25 h 0.25 v -2.5 H 2 C 1.58579,12.75 1.25,12.4142 1.25,12 1.25,11.5858 1.58579,11.25 2,11.25 H 2.25 V 8.75 H 2 C 1.58579,8.75 1.25,8.41421 1.25,8 1.25,7.58579 1.58579,7.25 2,7.25 H 2.25062 C 2.25356,6.19818 2.2704,5.32319 2.36652,4.60825 2.48754,3.70814 2.74643,2.95027 3.34835,2.34835 3.95027,1.74643 4.70814,1.48754 5.60825,1.36652 6.47522,1.24996 7.57754,1.24998 8.94513,1.25 Z M 3.75,8.75 H 4 C 4.41421,8.75 4.75,8.41421 4.75,8 4.75,7.58579 4.41421,7.25 4,7.25 H 3.75078 C 3.75398,6.2042 3.77029,5.42437 3.85315,4.80812 3.9518,4.07435 4.13225,3.68577 4.40901,3.40901 4.68577,3.13225 5.07434,2.9518 5.80812,2.85315 6.2098,2.79914 6.68097,2.77341 7.25,2.76115 V 21.2389 C 6.68097,21.2266 6.2098,21.2009 5.80812,21.1469 5.07434,21.0482 4.68577,20.8678 4.40901,20.591 4.13225,20.3142 3.9518,19.9257 3.85315,19.1919 3.77029,18.5756 3.75398,17.7958 3.75078,16.75 H 4 C 4.41421,16.75 4.75,16.4142 4.75,16 4.75,15.5858 4.41421,15.25 4,15.25 H 3.75 v -2.5 H 4 C 4.41421,12.75 4.75,12.4142 4.75,12 4.75,11.5858 4.41421,11.25 4,11.25 H 3.75 Z m 5,12.5 c 0.08184,0 0.16516,0 0.25,0 h 6 c 1.4354,0 2.4365,-0.0016 3.1919,-0.1031 0.7338,-0.0987 1.1223,-0.2791 1.3991,-0.5559 0.2768,-0.2768 0.4572,-0.6653 0.5559,-1.3991 C 20.2484,18.4365 20.25,17.4354 20.25,16 V 8 C 20.25,6.56458 20.2484,5.56347 20.1469,4.80812 20.0482,4.07435 19.8678,3.68577 19.591,3.40901 19.3142,3.13225 18.9257,2.9518 18.1919,2.85315 17.4365,2.75159 16.4354,2.75 15,2.75 H 9 c -0.08484,0 -0.16816,1e-5 -0.25,4e-5 z m 2,-14.75 c 0,-0.41421 0.3358,-0.75 0.75,-0.75 h 5 c 0.4142,0 0.75,0.33579 0.75,0.75 0,0.41421 -0.3358,0.75 -0.75,0.75 h -5 c -0.4142,0 -0.75,-0.33579 -0.75,-0.75 z m 0,3.5 c 0,-0.41421 0.3358,-0.75 0.75,-0.75 h 5 c 0.4142,0 0.75,0.33579 0.75,0.75 0,0.4142 -0.3358,0.75 -0.75,0.75 h -5 c -0.4142,0 -0.75,-0.3358 -0.75,-0.75 z"
     fill="#1c274c"
     id="path1"
     style="fill:#ffffff" /></g></svg>
